<mxfile host="app.diagrams.net">
  <diagram name="Swimlane Diagram"><mxGraphModel dx="1470" dy="659" grid="1" gridSize="10" guides="1" tooltips="1" connect="1" arrows="1" fold="1" page="1" pageScale="1" pageWidth="827" pageHeight="1169" math="0" shadow="0">
    <root>
      <mxCell id="0"/>
      <mxCell id="1" parent="0"/>
      <mxCell id="2" value="" style="swimlane;horizontal=1;startSize=20;" vertex="1" connectable="0" parent="1">
        <mxGeometry x="50" y="50" width="1100" height="500" as="geometry"/>
      </mxCell>
      <mxCell id="3" value="Source End" style="text;html=1;strokeColor=none;fillColor=none;align=center;verticalAlign=middle;whiteSpace=wrap;rotatable=0;" vertex="1" connectable="0" parent="2">
        <mxGeometry x="0" y="0" width="330" height="40" as="geometry"/>
      </mxCell>
      <mxCell id="4" value="Center" style="text;html=1;strokeColor=none;fillColor=none;align=center;verticalAlign=middle;whiteSpace=wrap;rotatable=0;" vertex="1" connectable="0" parent="2">
        <mxGeometry x="330" y="0" width="440" height="40" as="geometry"/>
      </mxCell>
      <mxCell id="5" value="Client End" style="text;html=1;strokeColor=none;fillColor=none;align=center;verticalAlign=middle;whiteSpace=wrap;rotatable=0;" vertex="1" connectable="0" parent="2">
        <mxGeometry x="770" y="0" width="330" height="40" as="geometry"/>
      </mxCell>
      <mxCell id="6" value="Data Change Notification" style="edgeStyle=orthogonalEdgeStyle;rounded=0;orthogonalLoop=1;" edge="1" parent="2" source="10" target="11">
        <mxGeometry relative="1" as="geometry"/>
      </mxCell>
      <mxCell id="7" value="Query Data" style="edgeStyle=orthogonalEdgeStyle;rounded=0;orthogonalLoop=1;" edge="1" parent="2" source="12" target="13">
        <mxGeometry relative="1" as="geometry"/>
      </mxCell>
      <mxCell id="8" value="Cache Value/Empty Response" style="edgeStyle=orthogonalEdgeStyle;rounded=0;orthogonalLoop=1;" edge="1" parent="2" source="13" target="12">
        <mxGeometry relative="1" as="geometry"/>
      </mxCell>
      <mxCell id="9" value="Consensus Update" style="edgeStyle=orthogonalEdgeStyle;rounded=0;orthogonalLoop=1;" edge="1" parent="2" source="14" target="15">
        <mxGeometry relative="1" as="geometry"/>
      </mxCell>
      <mxCell id="10" value="" style="ellipse;whiteSpace=wrap;html=1;" vertex="1" parent="2">
        <mxGeometry x="140" y="80" width="80" height="40" as="geometry"/>
      </mxCell>
      <mxCell id="11" value="" style="ellipse;whiteSpace=wrap;html=1;" vertex="1" parent="2">
        <mxGeometry x="470" y="80" width="80" height="40" as="geometry"/>
      </mxCell>
      <mxCell id="12" value="" style="ellipse;whiteSpace=wrap;html=1;" vertex="1" parent="2">
        <mxGeometry x="870" y="80" width="80" height="40" as="geometry"/>
      </mxCell>
      <mxCell id="13" value="" style="ellipse;whiteSpace=wrap;html=1;" vertex="1" parent="2">
        <mxGeometry x="470" y="180" width="80" height="40" as="geometry"/>
      </mxCell>
      <mxCell id="14" value="" style="ellipse;whiteSpace=wrap;html=1;" vertex="1" parent="2">
        <mxGeometry x="470" y="280" width="80" height="40" as="geometry"/>
      </mxCell>
      <mxCell id="15" value="" style="ellipse;whiteSpace=wrap;html=1;" vertex="1" parent="2">
        <mxGeometry x="870" y="280" width="80" height="40" as="geometry"/>
      </mxCell>
    </root>
  </mxGraphModel>
  </diagram>
</mxfile>